<svg id="visual" viewBox="0 0 1920 1080" width="1920" height="1080" xmlns="http://www.w3.org/2000/svg" xmlns:xlink="http://www.w3.org/1999/xlink" version="1.1"><rect x="0" y="0" width="1920" height="1080" fill="#140021"></rect><path d="M0 422L83 422L83 574L167 574L167 384L250 384L250 825L334 825L334 408L417 408L417 776L501 776L501 501L584 501L584 678L668 678L668 656L751 656L751 741L835 741L835 562L918 562L918 685L1002 685L1002 647L1085 647L1085 343L1169 343L1169 444L1252 444L1252 504L1336 504L1336 864L1419 864L1419 327L1503 327L1503 817L1586 817L1586 391L1670 391L1670 676L1753 676L1753 675L1837 675L1837 460L1920 460L1920 415L1920 1081L1920 1081L1837 1081L1837 1081L1753 1081L1753 1081L1670 1081L1670 1081L1586 1081L1586 1081L1503 1081L1503 1081L1419 1081L1419 1081L1336 1081L1336 1081L1252 1081L1252 1081L1169 1081L1169 1081L1085 1081L1085 1081L1002 1081L1002 1081L918 1081L918 1081L835 1081L835 1081L751 1081L751 1081L668 1081L668 1081L584 1081L584 1081L501 1081L501 1081L417 1081L417 1081L334 1081L334 1081L250 1081L250 1081L167 1081L167 1081L83 1081L83 1081L0 1081Z" fill="#560090"></path><path d="M0 493L83 493L83 819L167 819L167 788L250 788L250 559L334 559L334 722L417 722L417 484L501 484L501 840L584 840L584 488L668 488L668 446L751 446L751 899L835 899L835 766L918 766L918 754L1002 754L1002 664L1085 664L1085 703L1169 703L1169 538L1252 538L1252 569L1336 569L1336 473L1419 473L1419 486L1503 486L1503 621L1586 621L1586 391L1670 391L1670 864L1753 864L1753 830L1837 830L1837 609L1920 609L1920 440L1920 1081L1920 1081L1837 1081L1837 1081L1753 1081L1753 1081L1670 1081L1670 1081L1586 1081L1586 1081L1503 1081L1503 1081L1419 1081L1419 1081L1336 1081L1336 1081L1252 1081L1252 1081L1169 1081L1169 1081L1085 1081L1085 1081L1002 1081L1002 1081L918 1081L918 1081L835 1081L835 1081L751 1081L751 1081L668 1081L668 1081L584 1081L584 1081L501 1081L501 1081L417 1081L417 1081L334 1081L334 1081L250 1081L250 1081L167 1081L167 1081L83 1081L83 1081L0 1081Z" fill="#5c009a"></path><path d="M0 909L83 909L83 512L167 512L167 544L250 544L250 732L334 732L334 578L417 578L417 443L501 443L501 521L584 521L584 675L668 675L668 496L751 496L751 702L835 702L835 563L918 563L918 718L1002 718L1002 738L1085 738L1085 516L1169 516L1169 831L1252 831L1252 804L1336 804L1336 745L1419 745L1419 492L1503 492L1503 699L1586 699L1586 548L1670 548L1670 786L1753 786L1753 693L1837 693L1837 796L1920 796L1920 573L1920 1081L1920 1081L1837 1081L1837 1081L1753 1081L1753 1081L1670 1081L1670 1081L1586 1081L1586 1081L1503 1081L1503 1081L1419 1081L1419 1081L1336 1081L1336 1081L1252 1081L1252 1081L1169 1081L1169 1081L1085 1081L1085 1081L1002 1081L1002 1081L918 1081L918 1081L835 1081L835 1081L751 1081L751 1081L668 1081L668 1081L584 1081L584 1081L501 1081L501 1081L417 1081L417 1081L334 1081L334 1081L250 1081L250 1081L167 1081L167 1081L83 1081L83 1081L0 1081Z" fill="#6201a3"></path><path d="M0 570L83 570L83 560L167 560L167 760L250 760L250 813L334 813L334 538L417 538L417 605L501 605L501 735L584 735L584 638L668 638L668 655L751 655L751 591L835 591L835 865L918 865L918 856L1002 856L1002 845L1085 845L1085 871L1169 871L1169 929L1252 929L1252 848L1336 848L1336 639L1419 639L1419 766L1503 766L1503 913L1586 913L1586 803L1670 803L1670 505L1753 505L1753 718L1837 718L1837 879L1920 879L1920 655L1920 1081L1920 1081L1837 1081L1837 1081L1753 1081L1753 1081L1670 1081L1670 1081L1586 1081L1586 1081L1503 1081L1503 1081L1419 1081L1419 1081L1336 1081L1336 1081L1252 1081L1252 1081L1169 1081L1169 1081L1085 1081L1085 1081L1002 1081L1002 1081L918 1081L918 1081L835 1081L835 1081L751 1081L751 1081L668 1081L668 1081L584 1081L584 1081L501 1081L501 1081L417 1081L417 1081L334 1081L334 1081L250 1081L250 1081L167 1081L167 1081L83 1081L83 1081L0 1081Z" fill="#6901ad"></path><path d="M0 781L83 781L83 934L167 934L167 703L250 703L250 633L334 633L334 769L417 769L417 896L501 896L501 561L584 561L584 577L668 577L668 942L751 942L751 955L835 955L835 656L918 656L918 771L1002 771L1002 940L1085 940L1085 810L1169 810L1169 795L1252 795L1252 591L1336 591L1336 700L1419 700L1419 692L1503 692L1503 618L1586 618L1586 718L1670 718L1670 926L1753 926L1753 773L1837 773L1837 772L1920 772L1920 751L1920 1081L1920 1081L1837 1081L1837 1081L1753 1081L1753 1081L1670 1081L1670 1081L1586 1081L1586 1081L1503 1081L1503 1081L1419 1081L1419 1081L1336 1081L1336 1081L1252 1081L1252 1081L1169 1081L1169 1081L1085 1081L1085 1081L1002 1081L1002 1081L918 1081L918 1081L835 1081L835 1081L751 1081L751 1081L668 1081L668 1081L584 1081L584 1081L501 1081L501 1081L417 1081L417 1081L334 1081L334 1081L250 1081L250 1081L167 1081L167 1081L83 1081L83 1081L0 1081Z" fill="#6f02b7"></path><path d="M0 833L83 833L83 949L167 949L167 805L250 805L250 870L334 870L334 742L417 742L417 937L501 937L501 708L584 708L584 763L668 763L668 751L751 751L751 829L835 829L835 740L918 740L918 651L1002 651L1002 667L1085 667L1085 860L1169 860L1169 809L1252 809L1252 758L1336 758L1336 932L1419 932L1419 853L1503 853L1503 741L1586 741L1586 622L1670 622L1670 718L1753 718L1753 697L1837 697L1837 903L1920 903L1920 939L1920 1081L1920 1081L1837 1081L1837 1081L1753 1081L1753 1081L1670 1081L1670 1081L1586 1081L1586 1081L1503 1081L1503 1081L1419 1081L1419 1081L1336 1081L1336 1081L1252 1081L1252 1081L1169 1081L1169 1081L1085 1081L1085 1081L1002 1081L1002 1081L918 1081L918 1081L835 1081L835 1081L751 1081L751 1081L668 1081L668 1081L584 1081L584 1081L501 1081L501 1081L417 1081L417 1081L334 1081L334 1081L250 1081L250 1081L167 1081L167 1081L83 1081L83 1081L0 1081Z" fill="#7603c1"></path><path d="M0 870L83 870L83 938L167 938L167 695L250 695L250 889L334 889L334 958L417 958L417 803L501 803L501 878L584 878L584 712L668 712L668 882L751 882L751 975L835 975L835 973L918 973L918 745L1002 745L1002 863L1085 863L1085 797L1169 797L1169 981L1252 981L1252 863L1336 863L1336 826L1419 826L1419 976L1503 976L1503 903L1586 903L1586 921L1670 921L1670 774L1753 774L1753 988L1837 988L1837 694L1920 694L1920 736L1920 1081L1920 1081L1837 1081L1837 1081L1753 1081L1753 1081L1670 1081L1670 1081L1586 1081L1586 1081L1503 1081L1503 1081L1419 1081L1419 1081L1336 1081L1336 1081L1252 1081L1252 1081L1169 1081L1169 1081L1085 1081L1085 1081L1002 1081L1002 1081L918 1081L918 1081L835 1081L835 1081L751 1081L751 1081L668 1081L668 1081L584 1081L584 1081L501 1081L501 1081L417 1081L417 1081L334 1081L334 1081L250 1081L250 1081L167 1081L167 1081L83 1081L83 1081L0 1081Z" fill="#7c03cb"></path><path d="M0 734L83 734L83 901L167 901L167 864L250 864L250 857L334 857L334 864L417 864L417 798L501 798L501 847L584 847L584 785L668 785L668 960L751 960L751 780L835 780L835 1008L918 1008L918 799L1002 799L1002 835L1085 835L1085 856L1169 856L1169 1005L1252 1005L1252 984L1336 984L1336 998L1419 998L1419 870L1503 870L1503 1005L1586 1005L1586 825L1670 825L1670 990L1753 990L1753 756L1837 756L1837 923L1920 923L1920 811L1920 1081L1920 1081L1837 1081L1837 1081L1753 1081L1753 1081L1670 1081L1670 1081L1586 1081L1586 1081L1503 1081L1503 1081L1419 1081L1419 1081L1336 1081L1336 1081L1252 1081L1252 1081L1169 1081L1169 1081L1085 1081L1085 1081L1002 1081L1002 1081L918 1081L918 1081L835 1081L835 1081L751 1081L751 1081L668 1081L668 1081L584 1081L584 1081L501 1081L501 1081L417 1081L417 1081L334 1081L334 1081L250 1081L250 1081L167 1081L167 1081L83 1081L83 1081L0 1081Z" fill="#8304d5"></path><path d="M0 828L83 828L83 848L167 848L167 841L250 841L250 988L334 988L334 892L417 892L417 826L501 826L501 810L584 810L584 820L668 820L668 918L751 918L751 905L835 905L835 1016L918 1016L918 846L1002 846L1002 922L1085 922L1085 994L1169 994L1169 918L1252 918L1252 870L1336 870L1336 941L1419 941L1419 992L1503 992L1503 1011L1586 1011L1586 1025L1670 1025L1670 882L1753 882L1753 952L1837 952L1837 915L1920 915L1920 899L1920 1081L1920 1081L1837 1081L1837 1081L1753 1081L1753 1081L1670 1081L1670 1081L1586 1081L1586 1081L1503 1081L1503 1081L1419 1081L1419 1081L1336 1081L1336 1081L1252 1081L1252 1081L1169 1081L1169 1081L1085 1081L1085 1081L1002 1081L1002 1081L918 1081L918 1081L835 1081L835 1081L751 1081L751 1081L668 1081L668 1081L584 1081L584 1081L501 1081L501 1081L417 1081L417 1081L334 1081L334 1081L250 1081L250 1081L167 1081L167 1081L83 1081L83 1081L0 1081Z" fill="#8905e0"></path><path d="M0 929L83 929L83 894L167 894L167 881L250 881L250 946L334 946L334 940L417 940L417 915L501 915L501 1014L584 1014L584 1027L668 1027L668 943L751 943L751 1012L835 1012L835 953L918 953L918 1020L1002 1020L1002 919L1085 919L1085 918L1169 918L1169 853L1252 853L1252 960L1336 960L1336 902L1419 902L1419 978L1503 978L1503 887L1586 887L1586 966L1670 966L1670 990L1753 990L1753 903L1837 903L1837 1042L1920 1042L1920 969L1920 1081L1920 1081L1837 1081L1837 1081L1753 1081L1753 1081L1670 1081L1670 1081L1586 1081L1586 1081L1503 1081L1503 1081L1419 1081L1419 1081L1336 1081L1336 1081L1252 1081L1252 1081L1169 1081L1169 1081L1085 1081L1085 1081L1002 1081L1002 1081L918 1081L918 1081L835 1081L835 1081L751 1081L751 1081L668 1081L668 1081L584 1081L584 1081L501 1081L501 1081L417 1081L417 1081L334 1081L334 1081L250 1081L250 1081L167 1081L167 1081L83 1081L83 1081L0 1081Z" fill="#9006ea"></path><path d="M0 939L83 939L83 994L167 994L167 1057L250 1057L250 911L334 911L334 1029L417 1029L417 1008L501 1008L501 913L584 913L584 1033L668 1033L668 922L751 922L751 985L835 985L835 990L918 990L918 1051L1002 1051L1002 1061L1085 1061L1085 912L1169 912L1169 1014L1252 1014L1252 949L1336 949L1336 942L1419 942L1419 1059L1503 1059L1503 907L1586 907L1586 1013L1670 1013L1670 966L1753 966L1753 928L1837 928L1837 1022L1920 1022L1920 928L1920 1081L1920 1081L1837 1081L1837 1081L1753 1081L1753 1081L1670 1081L1670 1081L1586 1081L1586 1081L1503 1081L1503 1081L1419 1081L1419 1081L1336 1081L1336 1081L1252 1081L1252 1081L1169 1081L1169 1081L1085 1081L1085 1081L1002 1081L1002 1081L918 1081L918 1081L835 1081L835 1081L751 1081L751 1081L668 1081L668 1081L584 1081L584 1081L501 1081L501 1081L417 1081L417 1081L334 1081L334 1081L250 1081L250 1081L167 1081L167 1081L83 1081L83 1081L0 1081Z" fill="#9608f4"></path><path d="M0 1074L83 1074L83 1000L167 1000L167 1006L250 1006L250 1006L334 1006L334 974L417 974L417 1067L501 1067L501 1031L584 1031L584 1078L668 1078L668 1055L751 1055L751 1055L835 1055L835 999L918 999L918 1069L1002 1069L1002 966L1085 966L1085 1000L1169 1000L1169 1057L1252 1057L1252 1074L1336 1074L1336 1011L1419 1011L1419 1031L1503 1031L1503 1003L1586 1003L1586 1041L1670 1041L1670 1024L1753 1024L1753 1004L1837 1004L1837 1053L1920 1053L1920 1023L1920 1081L1920 1081L1837 1081L1837 1081L1753 1081L1753 1081L1670 1081L1670 1081L1586 1081L1586 1081L1503 1081L1503 1081L1419 1081L1419 1081L1336 1081L1336 1081L1252 1081L1252 1081L1169 1081L1169 1081L1085 1081L1085 1081L1002 1081L1002 1081L918 1081L918 1081L835 1081L835 1081L751 1081L751 1081L668 1081L668 1081L584 1081L584 1081L501 1081L501 1081L417 1081L417 1081L334 1081L334 1081L250 1081L250 1081L167 1081L167 1081L83 1081L83 1081L0 1081Z" fill="#9d09ff"></path></svg>